<svg id="Layer_1" enable-background="new 0 0 512 512" height="512" viewBox="0 0 512 512" width="512" xmlns="http://www.w3.org/2000/svg"><g><g><path d="m510.009 209.991c-16.682 19.51-77.885 90.22-143.842 156.176-65.956 65.957-136.666 127.15-156.176 143.842-3.047 2.61-7.509 2.652-10.629.135-5.034-4.066-9.994-8.133-14.882-12.209-1.872-1.56-2.933-3.817-3.016-6.147-.052-1.133.135-2.288.572-3.39 3.734-9.454 1.778-20.623-5.866-28.267l-124.238-124.238c-7.696-7.696-18.97-9.62-28.454-5.782-3.349 1.352-7.197.374-9.506-2.413-5.335-6.427-9.422-11.523-12.178-15.007-2.465-3.11-2.382-7.53.198-10.546 16.598-19.406 77.875-90.209 143.915-156.249 66.029-66.029 136.832-127.306 156.238-143.904 3.016-2.579 7.436-2.662 10.546-.198 3.484 2.756 8.58 6.843 15.017 12.178 2.777 2.309 3.754 6.146 2.402 9.506-3.827 9.485-1.903 20.758 5.782 28.454l124.239 124.238c7.665 7.665 18.866 9.599 28.329 5.845 1.082-.437 2.226-.624 3.338-.572 2.319.073 4.555 1.123 6.105 2.985 4.077 4.898 8.164 9.88 12.241 14.934 2.517 3.12 2.476 7.582-.135 10.629z" fill="#fff18d"/><path d="m510.009 209.991c-16.682 19.51-77.885 90.22-143.842 156.176-65.956 65.957-136.666 127.15-156.176 143.842-3.047 2.61-7.509 2.652-10.629.135-5.034-4.066-9.994-8.133-14.882-12.209-1.872-1.56-2.933-3.817-3.016-6.147 13.957-11.627 92.393-77.448 162.645-147.69 70.273-70.273 136.125-148.761 147.69-162.655 2.319.073 4.555 1.123 6.105 2.985 4.077 4.898 8.164 9.88 12.241 14.934 2.516 3.12 2.475 7.582-.136 10.629z" fill="#ffd366"/><path d="m440.122 119.574c4.779 5.025 9.612 10.188 14.488 15.48 2.445 2.653 2.887 6.567 1.133 9.719-5.575 10.013-4.114 22.89 4.392 31.396-23.341 27.003-78.017 89.137-136.422 147.541s-120.539 113.08-147.542 136.421c-8.506-8.506-21.383-9.967-31.396-4.392-3.152 1.755-7.066 1.312-9.719-1.133-5.291-4.876-10.455-9.709-15.48-14.488-2.833-2.694-3.312-6.947-1.352-10.329 5.828-10.06 4.441-23.164-4.172-31.777-8.625-8.625-21.741-10.004-31.81-4.15-3.382 1.966-7.651 1.488-10.352-1.342-5.069-5.31-9.904-10.457-14.498-15.419-2.461-2.658-2.881-6.586-1.107-9.744 5.626-10.02 4.174-22.938-4.351-31.463 23.341-27.003 78.017-89.137 136.422-147.541s120.538-113.08 147.541-136.421c8.525 8.525 21.443 9.978 31.463 4.351 3.158-1.773 7.086-1.353 9.744 1.107 4.962 4.593 10.109 9.429 15.419 14.498 2.83 2.701 3.308 6.97 1.342 10.352-5.853 10.068-4.474 23.185 4.15 31.81 8.612 8.612 21.716 10 31.777 4.172 3.383-1.96 7.635-1.481 10.33 1.352z" fill="#f79e60"/></g><g fill="#fff"><path d="m183.876 296.305c-2.929-2.927-7.677-2.929-10.607 0-2.929 2.93-2.929 7.678 0 10.607l42.426 42.427c1.465 1.464 3.384 2.196 5.304 2.196 1.919 0 3.839-.732 5.304-2.196 2.929-2.93 2.929-7.678 0-10.607z"/><path d="m157.358 333.428 5.303-5.304c2.929-2.929 2.929-7.678-.001-10.606-2.928-2.928-7.677-2.929-10.606.001l-21.213 21.214c-2.929 2.929-2.929 7.678.001 10.606 1.464 1.464 3.384 2.196 5.303 2.196s3.839-.732 5.304-2.197l5.302-5.302 37.124 37.123c1.465 1.464 3.385 2.196 5.304 2.196s3.839-.732 5.304-2.196c2.929-2.93 2.929-7.678 0-10.607z"/><path d="m381.158 183.875-37.123-37.124 5.302-5.302c2.93-2.929 2.93-7.678.001-10.606-2.929-2.93-7.678-2.929-10.606-.001l-21.214 21.213c-2.93 2.929-2.93 7.678-.001 10.606 1.465 1.465 3.384 2.197 5.304 2.197 1.919 0 3.839-.732 5.303-2.196l5.304-5.303 37.123 37.124c1.465 1.464 3.384 2.196 5.304 2.196 1.919 0 3.839-.732 5.304-2.196 2.928-2.931 2.928-7.679-.001-10.608z"/><path d="m256 298.426-13.788 13.789-31.82-31.819 13.789-13.788c2.929-2.93 2.929-7.678 0-10.607-2.93-2.928-7.678-2.928-10.607 0l-19.092 19.092c-1.406 1.407-2.196 3.314-2.196 5.304s.79 3.896 2.196 5.304l42.427 42.426c1.465 1.464 3.385 2.196 5.304 2.196s3.839-.732 5.304-2.196l19.092-19.092c2.929-2.93 2.929-7.678 0-10.607-2.931-2.93-7.679-2.93-10.609-.002z"/><path d="m305.2 253.949-30.452-6.091-6.09-30.452c-.813-4.062-4.764-6.701-8.825-5.884-4.062.813-6.696 4.764-5.884 8.825l5.748 28.743-14.304-14.305c-2.93-2.928-7.678-2.928-10.607 0-2.929 2.93-2.929 7.678 0 10.608l42.427 42.427c1.465 1.464 3.385 2.196 5.304 2.196s3.839-.732 5.304-2.196c2.929-2.93 2.929-7.678 0-10.607l-14.305-14.304 28.743 5.749c4.063.814 8.014-1.822 8.825-5.884.812-4.061-1.822-8.012-5.884-8.825z"/><path d="m349.339 215.694c-2.93-2.928-7.678-2.928-10.607 0l-13.788 13.789-10.607-10.606 13.789-13.788c2.929-2.93 2.929-7.678 0-10.607-2.93-2.928-7.678-2.928-10.607 0l-13.788 13.788-10.606-10.606 13.789-13.788c2.929-2.93 2.929-7.678 0-10.607-2.93-2.928-7.678-2.928-10.607 0l-19.092 19.092c-2.929 2.93-2.929 7.678 0 10.607l42.428 42.426c1.464 1.464 3.384 2.196 5.303 2.196s3.839-.732 5.304-2.196l19.092-19.092c2.926-2.93 2.926-7.678-.003-10.608z"/></g></g></svg>