<svg id="Layer_1" enable-background="new 0 0 512 512" height="512" viewBox="0 0 512 512" width="512" xmlns="http://www.w3.org/2000/svg"><g><g><g><path d="m512 256c0 34.624-6.882 67.652-19.337 97.774l-65.066 63.84-40.661 39.899-37.674 36.963c-28.896 11.312-60.358 17.524-93.262 17.524-4.481 0-8.932-.113-13.351-.35-28.103-1.432-55.001-7.417-79.983-17.204l-143.35-140.744c-12.455-30.102-19.316-63.098-19.316-97.702 0-32.914 6.212-64.376 17.523-93.273l140.703-143.38c26.218-10.858 54.64-17.472 84.402-19.007 4.43-.227 8.891-.34 13.372-.34 34.604 0 67.601 6.861 97.702 19.316l39.61 40.352 35.253 35.892 65.88 67.106c11.333 28.917 17.555 60.399 17.555 93.334z" fill="#fff18d"/><g fill="#ffd366"><path d="m242.649 511.65c54.249-2.812 104.09-22.602 144.287-54.136l-37.674 36.963c-28.896 11.311-60.358 17.523-93.262 17.523-4.481 0-8.932-.113-13.351-.35z"/><path d="m353.702 19.316 39.61 40.352c-41.258-34.552-93.519-56.361-150.684-59.328 4.43-.227 8.891-.34 13.372-.34 34.604 0 67.601 6.861 97.702 19.316z"/><path d="m512 256c0 34.624-6.882 67.652-19.337 97.774l-65.066 63.84c36.005-44.102 57.618-100.381 57.618-161.615 0-60.688-21.232-116.514-56.65-160.44l65.88 67.106c11.333 28.918 17.555 60.4 17.555 93.335z"/></g><path d="m473.018 334.129 19.646 19.645c-26.568 64.253-78.551 115.329-143.401 140.702l-8.221-8.221-85.093-85.093-93.283 93.283c-64.84-25.394-116.802-76.481-143.35-140.743l94.591-94.591-96.384-96.384c25.384-64.85 76.46-116.823 140.702-143.381l97.723 97.723 97.754-97.754c64.263 26.548 115.349 78.51 140.743 143.35l-96.445 96.446z" fill="#ffd366"/><circle cx="256" cy="255.998" fill="#dcfff1" r="204.491"/><g fill="#ffaf5f"><path d="m473.018 334.129 19.646 19.645c-26.568 64.253-78.551 115.329-143.401 140.702l-8.221-8.221c62.295-30.369 110.517-85.309 131.976-152.126z"/><path d="m345.203 27.815 8.499-8.499c64.263 26.548 115.349 78.51 140.743 143.35l-19.954 19.955c-20.212-67.447-67.549-123.293-129.288-154.806z"/></g><path d="m425.331 256c0 93.365-75.966 169.331-169.331 169.331-5.213 0-10.364-.237-15.453-.7-86.154-7.83-153.878-80.478-153.878-168.631s67.724-160.801 153.878-168.63c5.089-.464 10.24-.701 15.453-.701 93.365 0 169.331 75.966 169.331 169.331z" fill="#fff18d"/><path d="m425.331 256c0 93.365-75.966 169.331-169.331 169.331-5.213 0-10.364-.237-15.453-.7 86.154-7.829 153.878-80.478 153.878-168.63 0-88.153-67.724-160.801-153.878-168.63 5.089-.464 10.24-.701 15.453-.701 93.365-.001 169.331 75.965 169.331 169.33z" fill="#ffd366"/><path d="m330.18 199.51c-38.97 42.87-28.56 108.09-22.97 132.05 1.1 4.73-2.49 9.25-7.35 9.25-3.62.01-8.07.01-13.01.02-20.66.03-50.02.05-64.45 0-3.96-.01-7.24-3.07-7.52-7.01-3.86-54.48 22.05-84.75 35.67-96.73 4.32-3.8 7.41-5.77 7.91-6.08-.6.28-4.87 2.1-14.66 1.21-4.86-.45-11.09-1.56-18.91-3.85-15.49-4.55-19.74 1.73-20.74 7.12-.66 3.6-3.78 6.22-7.44 6.22l-7.87-.01c-4.03-.01-7.35-3.18-7.54-7.21l-2.05-44.63c-.18-3.93 2.69-7.34 6.59-7.84l10.25-1.32c.32-.04.64-.06.96-.06 4.1 0 7.55 3.34 7.55 7.56 47.99-27.08 89.79 5.23 89.79 5.23l22.43-11.27c3.2-1.6 7.07-.75 9.3 2.04 1.35 1.69 2.89 3.61 4.35 5.36 2.41 2.92 2.26 7.15-.29 9.95z" fill="#ff6b81"/></g><path d="m330.18 199.51c-38.97 42.87-28.56 108.09-22.97 132.05 1.1 4.73-2.49 9.25-7.35 9.25-3.62.01-11.07.01-16.01.02-25.103-90.296 10.54-147.4 10.54-147.4l22.43-11.27c3.2-1.6 7.07-.75 9.3 2.04 1.35 1.69 2.89 3.61 4.35 5.36 2.41 2.92 2.26 7.15-.29 9.95z" fill="#ed2061"/></g><g fill="#ffd366"><path d="m248.218 130.453c0-4.142 3.359-7.5 7.502-7.5s7.502 3.358 7.502 7.5-3.359 7.5-7.502 7.5c-4.143.001-7.502-3.357-7.502-7.5z"/><path d="m263.222 381.543c0 4.142-3.359 7.5-7.502 7.5s-7.502-3.358-7.502-7.5 3.359-7.5 7.502-7.5 7.502 3.358 7.502 7.5z"/><path d="m373.758 255.993c0-4.142 3.359-7.5 7.502-7.5s7.502 3.358 7.502 7.5-3.359 7.5-7.502 7.5c-4.143.001-7.502-3.357-7.502-7.5z"/><path d="m137.672 255.993c0 4.142-3.359 7.5-7.502 7.5s-7.502-3.358-7.502-7.5 3.359-7.5 7.502-7.5c4.144 0 7.502 3.358 7.502 7.5z"/><path d="m263.222 130.453c0-4.142-3.359-7.5-7.502-7.5s-7.502 3.358-7.502 7.5 3.359 7.5 7.502 7.5c4.143.001 7.502-3.357 7.502-7.5z"/><path d="m122.668 255.993c0 4.142 3.359 7.5 7.502 7.5s7.502-3.358 7.502-7.5-3.359-7.5-7.502-7.5-7.502 3.358-7.502 7.5z"/><path d="m388.762 255.993c0-4.142-3.359-7.5-7.502-7.5s-7.502 3.358-7.502 7.5 3.359 7.5 7.502 7.5c4.143.001 7.502-3.357 7.502-7.5z"/><path d="m248.218 381.543c0 4.142 3.359 7.5 7.502 7.5s7.502-3.358 7.502-7.5-3.359-7.5-7.502-7.5-7.502 3.358-7.502 7.5z"/></g></g></svg>