<svg id="Layer_1" enable-background="new 0 0 512 512" height="512" viewBox="0 0 512 512" width="512" xmlns="http://www.w3.org/2000/svg"><g><g><path d="m416.392 416.39c-194.878 194.868-366.345 39.181-413.844-7.703-.906-.886-1.571-1.933-1.984-3.051-1.168-3.051-.524-6.646 1.943-9.113l394.018-394.015c2.467-2.467 6.052-3.112 9.113-1.943 1.118.413 2.155 1.077 3.051 1.984 46.874 47.498 202.572 218.963 7.703 413.841z" fill="#09eaa3"/><path d="m416.392 416.39c-194.878 194.868-366.345 39.181-413.844-7.703-.906-.886-1.571-1.933-1.984-3.051 64.587 57.79 220.516 164.981 395.286-9.788s67.568-330.697 9.788-395.284c1.118.413 2.155 1.077 3.051 1.984 46.874 47.499 202.572 218.964 7.703 413.842z" fill="#05c9a3"/><path d="m366.788 32.245c53.584 53.584 72.795 92.746 84.252 128.556 10.504 32.876 11.876 65.643 4.049 97.367-10.027 40.659-35.385 81.553-75.377 121.544s-80.885 65.349-121.545 75.376c-31.725 7.827-64.491 6.455-97.368-4.049-35.811-11.458-74.973-30.668-128.557-84.252z" fill="#ff6b81"/><path d="m366.788 32.245c53.584 53.584 72.795 92.746 84.252 128.556 10.504 32.876 11.876 65.643 4.049 97.367-10.027 40.659-35.385 81.553-75.377 121.544s-80.885 65.349-121.545 75.376c-31.725 7.827-64.491 6.455-97.368-4.049-35.811-11.458-74.973-30.668-128.557-84.252l.623-.623c42.339 37.659 75.355 53.085 105.928 62.87 32.877 10.504 65.643 11.876 97.368 4.049 40.659-10.027 81.553-35.385 121.545-75.376s65.349-80.885 75.377-121.544c7.827-31.725 6.455-64.491-4.049-97.367-9.785-30.573-25.211-63.589-62.87-105.927z" fill="#ed2061"/><g><g><path d="m347.956 315.521c8.957 8.957 8.957 23.478 0 32.435s-23.479 8.957-32.435 0c-10.35-10.35-9.368-31.988-8.762-38.842.111-1.251 1.104-2.242 2.355-2.35 6.864-.591 28.548-1.537 38.842 8.757z" fill="#0b687f"/></g><g><path d="m263.268 371.837c7.695 7.695 7.695 20.171 0 27.866s-20.171 7.695-27.867 0c-8.733-8.733-8.075-26.818-7.556-33.042.106-1.272 1.109-2.272 2.381-2.376 6.233-.506 24.357-1.133 33.042 7.552z" fill="#0b687f"/></g><g><path d="m399.703 235.402c7.695 7.695 7.695 20.171 0 27.866s-20.171 7.695-27.867 0c-8.733-8.733-8.075-26.818-7.556-33.042.106-1.272 1.109-2.272 2.381-2.376 6.233-.505 24.357-1.133 33.042 7.552z" fill="#0b687f"/></g><g><path d="m235.034 268.051c7.695 7.695 7.695 20.171 0 27.866s-20.171 7.695-27.867 0c-8.733-8.733-8.075-26.818-7.556-33.042.106-1.272 1.109-2.272 2.381-2.376 6.234-.505 24.357-1.133 33.042 7.552z" fill="#0b687f"/></g><g><path d="m179.287 344.273c8.928 8.928 8.928 23.403 0 32.331s-23.403 8.928-32.332 0c-10.314-10.314-9.339-31.87-8.735-38.711.11-1.251 1.104-2.243 2.356-2.35 6.85-.588 28.454-1.527 38.711 8.73z" fill="#0b687f"/></g><g><path d="m376.604 151.422c7.695 7.695 7.695 20.171 0 27.866s-20.171 7.695-27.867 0c-8.733-8.733-8.075-26.818-7.556-33.042.106-1.272 1.109-2.272 2.381-2.376 6.233-.506 24.357-1.134 33.042 7.552z" fill="#0b687f"/></g><g><path d="m307.29 209.539c10.181 10.181 10.181 26.688 0 36.869s-26.688 10.181-36.87 0c-11.921-11.921-10.617-37.014-9.933-44.453.115-1.251 1.099-2.232 2.35-2.344 7.449-.667 32.597-1.928 44.453 9.928z" fill="#0b687f"/></g></g></g><g fill="#ed2061"><circle cx="99.234" cy="363.367" r="7.553"/><circle cx="257.471" cy="326.642" r="7.553"/><circle cx="355.923" cy="102.808" r="7.553"/></g></g></svg>