<svg id="Layer_1" enable-background="new 0 0 512 512" height="512" viewBox="0 0 512 512" width="512" xmlns="http://www.w3.org/2000/svg"><g><g><g><path d="m490.824 218.268c-1.752 7.549-11.706 9.301-15.936 2.8-7.164-11.012-16.827-25.134-25.703-35.71 0 0-94.36 152.318-236.394 323.476-3.038 3.65-8.419 4.22-12.172 1.317-4.997-3.878-9.933-7.777-14.775-11.696-96.475-77.84-165.226-162.874-184.002-187.054-2.903-3.743-2.312-9.114 1.338-12.142 171.147-142.053 323.486-236.44 323.486-236.44-10.586-8.876-24.707-18.539-35.708-25.704-6.501-4.231-4.759-14.174 2.789-15.937 37.035-8.596 120.405-24.75 209.405-20.468 2.986.145 5.568 1.804 6.978 4.241.684 1.151 1.099 2.478 1.161 3.899 4.282 89.005-11.872 172.38-20.467 209.418z" fill="#fff18d"/></g><path d="m490.824 218.268c-1.752 7.549-11.706 9.301-15.936 2.8-7.164-11.012-16.827-25.134-25.703-35.71 0 0-94.36 152.318-236.394 323.476-3.038 3.65-8.419 4.22-12.172 1.317-4.997-3.878-9.933-7.777-14.775-11.696 41.483-48.91 154.112-186.193 258.416-353.598 0 0 10.544 8.14 27.911 30.578 19.14-74.458 34.505-152.536 37.958-170.484.684 1.151 1.099 2.478 1.161 3.899 4.283 89.005-11.871 172.38-20.466 209.418z" fill="#ffd366"/><path d="m401.917 163.127c-15.915 25.092-90.006 139.865-196.622 272.866-2.976 3.712-8.44 4.21-12.037 1.099-4.686-4.044-9.29-8.098-13.821-12.142-43.847-39.236-79.762-77.891-104.376-106.291-3.11-3.598-2.602-9.062 1.109-12.028 132.65-106.332 247.477-180.521 272.672-196.51 3.079-1.949 7.061-1.69 9.86.653 6.107 5.122 17.377 14.973 29.228 27.457 4.469 4.707 9.01 9.778 13.406 15.107 2.292 2.79 2.52 6.74.581 9.789z" fill="#81ebeb"/><path d="m401.917 163.127c-15.915 25.092-90.006 139.865-196.622 272.866-2.976 3.712-8.44 4.21-12.037 1.099-4.686-4.044-9.29-8.098-13.821-12.142 36.973-44.389 132.256-162.313 208.493-286.719 4.469 4.707 9.01 9.778 13.406 15.107 2.292 2.79 2.52 6.74.581 9.789z" fill="#00cec8"/></g><g fill="#fff"><path d="m356.118 40.519c0 4.142 3.359 7.5 7.502 7.5s7.502-3.358 7.502-7.5-3.359-7.5-7.502-7.5-7.502 3.358-7.502 7.5z"/><path d="m397.283 66.689c0-4.142-3.359-7.5-7.502-7.5s-7.502 3.358-7.502 7.5 3.359 7.5 7.502 7.5 7.502-3.358 7.502-7.5z"/><path d="m439.632 73.83c4.143 0 7.502-3.358 7.502-7.5s-3.359-7.5-7.502-7.5-7.502 3.358-7.502 7.5 3.358 7.5 7.502 7.5z"/><path d="m422.383 91.08c0-4.142-3.359-7.5-7.502-7.5s-7.502 3.358-7.502 7.5 3.359 7.5 7.502 7.5 7.502-3.358 7.502-7.5z"/><path d="m464.033 98.939c4.143 0 7.502-3.358 7.502-7.5s-3.359-7.5-7.502-7.5-7.502 3.358-7.502 7.5 3.359 7.5 7.502 7.5z"/><path d="m439.282 123.679c4.143 0 7.502-3.358 7.502-7.5s-3.359-7.5-7.502-7.5-7.502 3.358-7.502 7.5 3.359 7.5 7.502 7.5z"/><path d="m465.443 134.839c-4.143 0-7.502 3.358-7.502 7.5s3.359 7.5 7.502 7.5 7.502-3.358 7.502-7.5-3.359-7.5-7.502-7.5z"/><path d="m414.531 49.439c4.143 0 7.502-3.358 7.502-7.5s-3.359-7.5-7.502-7.5-7.502 3.358-7.502 7.5 3.359 7.5 7.502 7.5z"/><path d="m464.382 49.08c4.143 0 7.502-3.358 7.502-7.5s-3.359-7.5-7.502-7.5-7.502 3.358-7.502 7.5 3.359 7.5 7.502 7.5z"/></g></g></svg>