<svg id="Layer_1" enable-background="new 0 0 512 512" height="512" viewBox="0 0 512 512" width="512" xmlns="http://www.w3.org/2000/svg"><g><path d="m353.02 498.17c-.4-.26-40.86-26.3-64.22-80.33-1.18-2.75-3.89-4.53-6.88-4.53-.01 0-.01 0-.02 0l-51.89.13c-2.98.01-5.68 1.78-6.86 4.52-23.27 53.72-63.78 79.95-64.17 80.21-2.82 1.78-4.13 5.21-3.2 8.42s3.87 5.41 7.21 5.41h186.02c3.34 0 6.28-2.2 7.21-5.41s-.38-6.64-3.2-8.42z" fill="#00fab4"/><path d="m356.22 506.59c-.93 3.21-3.87 5.41-7.21 5.41h-20.74c-26.61-18.247-64.22-79.98-66.37-98.62l20-.07h.02c2.99 0 5.7 1.78 6.88 4.53 23.36 54.03 63.82 80.07 64.22 80.33 2.82 1.78 4.13 5.21 3.2 8.42z" fill="#09eaa3"/><path d="m468.22 103.89c-.15.53-15.33 53.62-48.24 122.62-29.59 62.06-79.88 149.87-152.84 220.13l-.01.01c-1.99 1.91-3.99 3.81-6.01 5.7-1.44 1.34-3.28 2.02-5.12 2.02s-3.68-.68-5.12-2.02c-76.22-71.16-128.46-162.09-158.86-225.84-32.91-69-48.09-122.09-48.24-122.62-.57-2.04-.26-4.24.87-6.03 1.13-1.8 2.97-3.04 5.06-3.4.92-.16 93.28-16.04 206.29-16.04 75.99 0 142.65 7.18 178.44 11.93 17.44 2.32 27.55 4.06 27.85 4.11 2.09.36 3.93 1.6 5.06 3.4 1.13 1.79 1.44 3.99.87 6.03z" fill="#dcfff1"/><g><path d="m390.94 191.48c-2.15 4.69-4.33 9.33-6.48 13.81-24.11 50.25-65.05 123.19-123.19 185.32-1.42 1.51-3.4 2.37-5.48 2.37-2.07 0-4.05-.86-5.47-2.37-58.14-62.14-99.08-135.07-123.19-185.32-3.62-7.55-7.22-15.33-10.7-23.13-1.21-2.71-.71-5.88 1.27-8.08 1.99-2.2 5.08-3.03 7.9-2.11 5.31 1.74 10.13 3.65 14.8 5.51 14.5 5.77 28.2 11.22 56.31 11.22 28.1 0 41.8-5.45 56.31-11.22 15.18-6.04 30.88-12.28 61.86-12.28 22 0 36.29 3.15 48.16 7.13 4.85 1.63 9.3 3.4 13.7 5.15 3.36 1.34 6.54 2.6 9.92 3.82 1.98.71 3.57 2.21 4.38 4.15s.78 4.13-.1 6.03z" fill="#fff18d"/><path d="m386.06 0c-66.23 0-102.71 0-120.91 43.87-3.87 9.32-6.85 20.68-9.15 34.55l7.243 4.054 7.907-3.954c2.05-11.57 4.62-21.09 7.86-28.9 6.94-16.74 16.7-25.42 33.68-29.97 17.36-4.65 40.86-4.65 73.37-4.65 4.14 0 7.5-3.36 7.5-7.5s-3.36-7.5-7.5-7.5z" fill="#f79e60"/><g fill="#ffd366"><path d="m271.15 78.52c-7.86 44.52-7.86 119.29-7.86 242.96 0 4.14-3.35 7.5-7.5 7.5-4.14 0-7.5-3.36-7.5-7.5 0-121.57 0-196.49 7.71-243.06 5.09 0 10.15.03 15.15.1z"/><circle cx="183.725" cy="230.74" r="7.5"/><circle cx="214.765" cy="280.02" r="7.5"/><circle cx="313.675" cy="219.1" r="7.5"/><path d="m390.94 191.48c-2.15 4.69-4.33 9.33-6.48 13.81-24.11 50.25-65.05 123.19-123.19 185.32-1.42 1.51-3.4 2.37-5.48 2.37 80.94-133.08 107.25-220.65 107.25-220.65 4.85 1.63 9.3 3.4 13.7 5.15 3.36 1.34 6.54 2.6 9.92 3.82 1.98.71 3.57 2.21 4.38 4.15s.78 4.13-.1 6.03z"/></g></g><path d="m468.22 103.89c-.15.53-15.33 53.62-48.24 122.62-29.59 62.06-79.88 149.87-152.84 220.13 139.33-166.54 167.3-356.29 167.3-356.29 17.44 2.32 27.55 4.06 27.85 4.11 2.09.36 3.93 1.6 5.06 3.4 1.13 1.79 1.44 3.99.87 6.03z" fill="#87ffd6"/></g></svg>