<svg id="Layer_1" enable-background="new 0 0 512 512" height="512" viewBox="0 0 512 512" width="512" xmlns="http://www.w3.org/2000/svg"><g><path d="m512 257.65c0 140.47-115.17 254.35-256 254.35-5.03 0-10.04-.15-15-.44-133.92-7.74-241-118.46-241-253.91 0-62.99 24.33-120.26 62.42-164.59l-37.16-9.17c-2.68-.67-4.56-3.07-4.56-5.83v-72.06c0-3.31 2.69-6 6-6h118.3c3.31 0 6 2.69 6 6v94.77c-36.64 30.18-60 75.85-60 126.95 0 90.9 73.87 164.58 165 164.58s165-73.68 165-164.58c0-51.1-23.36-96.77-60-126.95v-94.77c0-3.31 2.69-6 6-6h118.3c3.31 0 6 2.69 6 6v72.07c0 2.76-1.88 5.16-4.56 5.83l-37.16 9.17c38.09 44.33 62.42 101.59 62.42 164.58z" fill="#fff18d"/><path d="m512 257.65c0 140.47-115.17 254.35-256 254.35-5.03 0-10.04-.15-15-.44 133.92-7.74 241-118.46 241-253.91 0-62.99-24.33-120.25-62.42-164.58l36.86-17.94c2.97-1.44 4.86-4.46 4.86-7.77v-61.36c0-3.31-2.69-6-6-6h30c3.31 0 6 2.69 6 6v72.07c0 2.76-1.88 5.16-4.56 5.83l-37.16 9.17c38.09 44.33 62.42 101.59 62.42 164.58z" fill="#ffd366"/><path d="m360.39 231.4c0 24.36-10.57 42.89-29.77 52.17-14.37 6.94-31.86 7.49-47.08 2.23 3.65 10.8 7.9 21.21 12.71 31.11.98 2.03 1 4.38.05 6.42-.94 2.04-2.75 3.55-4.92 4.12-.42.11-7.38 1.88-18.05 3.06-5.03.55-10.89.97-17.27 1.02h-.12c-19.92-.16-34.7-3.92-35.32-4.08-2.17-.57-3.98-2.08-4.93-4.12-.94-2.04-.92-4.39.06-6.42 4.81-9.9 9.06-20.31 12.71-31.11-15.22 5.26-32.71 4.71-47.08-2.23-19.2-9.28-29.77-27.81-29.77-52.17 0-34.69 17.89-65.13 51.75-88.01 24.96-16.87 49.64-23.68 50.68-23.96 1.28-.35 2.64-.35 3.92 0 1.04.28 25.72 7.09 50.68 23.96 33.86 22.88 51.75 53.32 51.75 88.01z" fill="#0b687f"/><g fill="#ffd366"><path d="m256 428.291c-13.336 0-24.186 10.838-24.186 24.16s10.85 24.16 24.186 24.16 24.186-10.838 24.186-24.16-10.85-24.16-24.186-24.16z"/><path d="m156.5 401.305c-13.336 0-24.186 10.838-24.186 24.16s10.85 24.16 24.186 24.16 24.186-10.838 24.186-24.16-10.85-24.16-24.186-24.16z"/><path d="m83.533 333.6c-13.336 0-24.186 10.838-24.186 24.16s10.85 24.16 24.186 24.16 24.186-10.838 24.186-24.16-10.85-24.16-24.186-24.16z"/><path d="m428.467 333.6c-13.336 0-24.186 10.838-24.186 24.16s10.85 24.16 24.186 24.16 24.186-10.838 24.186-24.16-10.85-24.16-24.186-24.16z"/><path d="m355.5 401.305c-13.336 0-24.186 10.838-24.186 24.16s10.85 24.16 24.186 24.16 24.186-10.838 24.186-24.16-10.85-24.16-24.186-24.16z"/></g><g fill="#ffd366"><circle cx="54.6" cy="280.584" r="7.5"/><circle cx="52.6" cy="223.614" r="7.5"/><circle cx="66.6" cy="167.644" r="7.5"/><circle cx="107.19" cy="44.144" r="7.5"/><circle cx="66.19" cy="44.144" r="7.5"/><circle cx="457.4" cy="283.584" r="7.5"/><circle cx="459.4" cy="226.614" r="7.5"/><circle cx="445.4" cy="170.644" r="7.5"/><circle cx="403.81" cy="44.144" r="7.5"/><circle cx="444.81" cy="44.144" r="7.5"/></g><g fill="#124a6a"><path d="m360.39 231.4c0 24.36-10.57 42.89-29.77 52.17-14.37 6.94-31.86 7.49-47.08 2.23 107.33-59.19-25.58-166.37-25.58-166.37 1.04.28 25.72 7.09 50.68 23.96 33.86 22.88 51.75 53.32 51.75 88.01z"/><path d="m296.3 323.33c-.94 2.04-2.75 3.55-4.92 4.12-.42.11-7.38 1.88-18.05 3.06-10.79-29.35-13.67-53.78-13.67-53.78s12.81 6.25 23.88 9.07c3.65 10.8 7.9 21.21 12.71 31.11.98 2.03 1 4.38.05 6.42z"/></g></g></svg>