<svg id="Layer_1" enable-background="new 0 0 512 512" height="512" viewBox="0 0 512 512" width="512" xmlns="http://www.w3.org/2000/svg"><g><path d="m256 378.913c-4.142 0-7.5 3.358-7.5 7.5 0 63.273-15.024 90.122-27.628 101.503-11.289 10.193-21.898 9.238-22.343 9.194-4.112 0-7.445 3.333-7.445 7.445s3.333 7.445 7.445 7.445c0 0 5.826-.033 9.284-.773 8.016-1.717 15.804-5.747 22.525-11.655 22.005-19.344 33.162-57.416 33.162-113.159 0-4.142-3.357-7.5-7.5-7.5z" fill="#057f8e"/><path d="m324.738 0c-19.054 0-37.962 6.282-51.875 17.235-7.12 5.604-12.79 12.285-16.862 19.739-4.072-7.454-9.742-14.134-16.862-19.739-13.915-10.953-32.822-17.235-51.876-17.235-37.618 0-75.576 24.33-75.576 78.683 0 66.822 46.788 107.928 86.038 130.645 1.162.673 2.459 1.009 3.757 1.009 1.318 0 2.636-.347 3.811-1.041l190.821-112.576c2.083-1.228 3.445-3.385 3.66-5.793.357-4.013.539-8.132.539-12.244 0-54.353-37.958-78.683-75.575-78.683z" fill="#81ebeb"/><path d="m465.335 243.39c10.95 13.91 17.24 32.82 17.24 51.87 0 20-6.74 38.42-18.97 51.86-14.1 15.51-34.76 23.7-59.73 23.7-3.92 0-7.86-.16-11.7-.49-2.41-.2-4.58-1.56-5.81-3.65l-113.12-190.83c-1.38-2.33-1.39-5.23-.03-7.58.96-1.67 1.96-3.34 2.99-5.03 0 0 0 0 .01-.01 23.26-38.1 63.67-80.98 127.66-80.98 54.36 0 78.7 37.95 78.7 75.56 0 19.05-6.29 37.96-17.24 51.87-5.61 7.11-12.29 12.78-19.74 16.85 7.45 4.08 14.13 9.74 19.74 16.86z" fill="#00cec8"/><g><path d="m400.315 374.39c0 54.35-37.96 78.68-75.58 78.68-19.05 0-37.96-6.28-51.87-17.24-7.12-5.6-12.79-12.28-16.86-19.74-4.08 7.46-9.75 14.14-16.87 19.74-13.91 10.96-32.82 17.24-51.87 17.24-20.01 0-38.43-6.73-51.87-18.96-15.51-14.1-23.71-34.76-23.71-59.72 0-4.11.18-8.23.54-12.25.22-2.41 1.58-4.56 3.66-5.79l190.82-112.58c2.34-1.37 5.23-1.39 7.57-.03 1.8 1.04 3.62 2.13 5.45 3.26h.01c38 23.3 80.58 63.64 80.58 127.39z" fill="#00cec8"/><path d="m315.664 316.87c-3.043-2.813-7.788-2.625-10.599.416-2.813 3.042-2.626 7.787.415 10.598 19.538 18.063 29.444 38.919 29.444 61.987 0 4.142 3.357 7.5 7.5 7.5s7.5-3.358 7.5-7.5c.001-27.422-11.526-51.983-34.26-73.001z" fill="#00cec8"/><path d="m400.315 374.39c0 54.35-37.96 78.68-75.58 78.68 109.278-65.507-5.01-206.07-5.01-206.07h.01c38 23.3 80.58 63.64 80.58 127.39z" fill="#00a3a8"/></g><path d="m238.785 284.8c-1.04 1.8-2.13 3.62-3.25 5.45 0 0 0 0-.01.01-23.3 37.99-63.65 80.56-127.4 80.56-54.36 0-78.7-37.95-78.7-75.56 0-19.05 6.29-37.96 17.24-51.87 5.61-7.12 12.29-12.78 19.74-16.86-7.45-4.07-14.13-9.74-19.74-16.85-10.95-13.91-17.24-32.82-17.24-51.87 0-20 6.74-38.42 18.97-51.86 14.1-15.51 34.76-23.7 59.73-23.7 4.11 0 8.23.18 12.24.54 2.41.21 4.57 1.57 5.8 3.65l112.59 190.79c1.38 2.33 1.39 5.23.03 7.57z" fill="#00cec8"/><g><path d="m111.688 78.68c0-54.35 37.96-78.68 75.58-78.68 19.05 0 37.96 6.28 51.87 17.24 7.12 5.6 12.79 12.28 16.86 19.74 4.08-7.46 9.75-14.14 16.87-19.74 13.91-10.96 32.82-17.24 51.87-17.24 20.01 0 38.43 6.73 51.87 18.96 15.51 14.1 23.71 34.76 23.71 59.72 0 4.11-.18 8.23-.54 12.25-.22 2.41-1.58 4.56-3.66 5.79l-190.82 112.58c-2.34 1.37-5.23 1.39-7.57.03-1.8-1.04-3.62-2.13-5.45-3.26h-.01c-38-23.3-80.58-63.64-80.58-127.39z" fill="#00cec8"/><path d="m196.338 136.2c3.043 2.813 7.788 2.625 10.599-.416 2.813-3.042 2.626-7.787-.415-10.598-19.538-18.063-29.444-38.919-29.444-61.987 0-4.142-3.357-7.5-7.5-7.5s-7.5 3.358-7.5 7.5c-.001 27.422 11.527 51.983 34.26 73.001z" fill="#00cec8"/><path d="m111.688 78.68c0-54.35 37.96-78.68 75.58-78.68-109.278 65.507 5.01 206.07 5.01 206.07h-.01c-38-23.3-80.58-63.64-80.58-127.39z" fill="#00a3a8"/></g><path d="m235.525 290.26c-23.3 37.99-63.65 80.56-127.4 80.56-54.36 0-78.7-37.95-78.7-75.56 71.35 103.86 204.69-3.86 206.1-5z" fill="#00a3a8"/><path d="m322.935 226.53c0 36.81-29.87 66.77-66.63 66.93h-.3c-36.91 0-66.94-30.02-66.94-66.93 0-36.9 30.03-66.92 66.94-66.92h.3c36.76.16 66.63 30.12 66.63 66.92z" fill="#00a3a8"/><path d="m322.935 226.53c0 36.81-29.87 66.77-66.63 66.93 24.13-12.61 40.63-37.88 40.63-66.93s-16.5-54.31-40.63-66.92c36.76.16 66.63 30.12 66.63 66.92z" fill="#057f8e"/><g fill="#057f8e"><circle cx="235.79" cy="240.54" r="7.5"/><circle cx="276.21" cy="240.54" r="7.5"/><circle cx="256.01" cy="206.529" r="7.5"/></g><path d="m482.575 157.81c-81.08-118.28-205.05 4.12-206.36 5.42 23.26-38.1 63.67-80.98 127.66-80.98 54.36 0 78.7 37.95 78.7 75.56z" fill="#00a3a8"/></g></svg>