<svg id="Layer_1" enable-background="new 0 0 512 512" height="512" viewBox="0 0 512 512" width="512" xmlns="http://www.w3.org/2000/svg"><g><path d="m362.27 506.594c-.94 3.203-3.87 5.406-7.2 5.406h-198.14c-3.34 0-6.27-2.212-7.21-5.416-.93-3.203.37-6.637 3.18-8.429.4-.26 40.98-26.688 64.24-80.553 1.18-2.753 3.89-4.525 6.88-4.525h63.96c2.99 0 5.7 1.772 6.88 4.525 23.26 53.866 63.84 80.293 64.25 80.553 2.8 1.803 4.09 5.236 3.16 8.439z" fill="#00fab4"/><path d="m362.27 506.594c-.94 3.203-3.87 5.406-7.2 5.406h-23.75c-26.17-19.1-63.78-79.562-66.94-98.922h23.6c2.99 0 5.7 1.772 6.88 4.525 23.26 53.866 63.84 80.293 64.25 80.553 2.8 1.802 4.09 5.235 3.16 8.438z" fill="#09eaa3"/><path d="m432.37 184.571c-1.18 37.929-5.68 72.355-13.38 102.346-9.73 37.929-24.65 68.891-44.35 92.035-20.46 24.025-46.09 39.791-76.52 47.109-13.15 3.163-27.2 4.755-42.12 4.755-49.43 0-89.34-17.448-118.64-51.864-19.7-23.144-34.62-54.106-44.35-92.035-7.7-29.991-12.2-64.417-13.38-102.346-2.01-64.347 6.11-115.81 6.46-117.962.58-3.644 3.72-6.317 7.4-6.317h325.01c3.69 0 6.83 2.673 7.41 6.317.35 2.152 8.47 53.615 6.46 117.962z" fill="#dcfff1"/><path d="m432.37 184.571c-1.18 37.929-5.68 72.355-13.38 102.346-9.73 37.929-24.65 68.891-44.35 92.035-20.46 24.025-46.09 39.791-76.52 47.109 149.65-80.784 102.64-365.769 102.64-365.769h17.74c3.69 0 6.83 2.673 7.41 6.317.35 2.152 8.47 53.615 6.46 117.962z" fill="#87ffd6"/><path d="m392.39 183.325c-2.4 76.76-19.06 135.43-48.19 169.65-21.66 25.44-50.51 37.8-88.2 37.8-37.66 0-66.48-12.34-88.13-37.72-28.98-33.99-45.65-92.19-48.21-168.31-.35-10.41-.43-21.22-.24-32.13.05-2.48 1.31-4.77 3.37-6.14 2.07-1.36 4.67-1.62 6.96-.68 14.55 5.94 30.01 11.27 59.06 11.27 32.09 0 47.74-6.53 64.3-13.44 17.2-7.17 34.98-14.59 70.07-14.59 20.51 0 35.12 2.55 47.02 6.03 6.51 1.91 12.21 4.1 17.62 6.31 2.77 1.13 4.6 3.79 4.67 6.78.29 11.93.26 23.76-.1 35.17z" fill="#00cec8"/><path d="m259.99 60.292c-11.49 44.456-11.49 122.537-11.49 261.521 0 4.144 3.36 7.508 7.5 7.508s7.5-3.363 7.5-7.508c0-142.628 0-220.288 12.02-261.521l-7.701-6.006z" fill="#87ffd6"/><g fill="#00a3a8"><ellipse cx="174.017" cy="222.851" rx="7.5" ry="7.508"/><ellipse cx="196.757" cy="288.669" rx="7.5" ry="7.508"/><ellipse cx="302.067" cy="327.989" rx="7.5" ry="7.508"/><ellipse cx="307.847" cy="255.154" rx="7.5" ry="7.508"/><ellipse cx="335.977" cy="182.539" rx="7.5" ry="7.508"/></g><path d="m393.76 7.508c0 4.144-3.35 7.508-7.5 7.508-32.51 0-56 0-73.37 4.655-16.98 4.555-26.73 13.244-33.68 30.001-1.34 3.243-2.57 6.777-3.69 10.621h-15.53c1.57-6.056 3.35-11.502 5.37-16.377 18.2-43.916 54.68-43.916 120.9-43.916 4.15 0 7.5 3.363 7.5 7.508z" fill="#00cec8"/><path d="m392.39 183.325c-2.4 76.76-19.06 135.43-48.19 169.65-21.66 25.44-50.51 37.8-88.2 37.8 113.78-14.82 115.52-208.1 114.2-255.71 6.51 1.91 12.21 4.1 17.62 6.31 2.77 1.13 4.6 3.79 4.67 6.78.29 11.93.26 23.76-.1 35.17z" fill="#00a3a8"/></g></svg>