<svg id="Layer_1" enable-background="new 0 0 512 512" height="512" viewBox="0 0 512 512" width="512" xmlns="http://www.w3.org/2000/svg"><g><path d="m451.497 4.707c-1.544-3.843-5.911-5.71-9.755-4.164-3.844 1.543-5.708 5.911-4.164 9.755 7.809 19.443 5.584 39.104-6.614 58.437-9.489 15.04-21.704 24.251-21.826 24.342-3.319 2.468-4.014 7.159-1.55 10.483 1.471 1.986 3.736 3.036 6.032 3.036 1.552 0 3.117-.48 4.459-1.475.578-.428 14.285-10.689 25.292-27.94 14.948-23.431 17.758-48.492 8.126-72.474z" fill="#f79e60"/><path d="m421.103 99.482-13.49 258.519c-.06 1.17-.39 2.31-.97 3.32-22.63 39.74-49.16 65.77-51.35 67.88-2.47 2.55-35.42 36-84.06 59.74-29.34 14.31-58.28 22.04-86.01 22.97-1.88.06-3.75.09-5.62.09-3.88 0-7.72-.14-11.55-.4h-.01c-26.75-1.89-52.2-10.35-75.92-25.26-10.93 9.19-21.51 15.17-31.5 17.79-15.45 4.06-29.73.11-41.29-11.42-11.56-11.55-15.52-25.81-11.45-41.24 2.63-9.98 8.62-20.54 17.81-31.45-18.09-28.69-26.7-59.92-25.6-92.929.93-27.69 8.67-56.58 23.02-85.88 23.77-48.55 57.28-81.45 59.84-83.919 2.46-2.54 35.42-36 84.06-59.74 29.35-14.31 58.28-22.04 86.01-22.97 33.07-1.1 64.36 7.5 93.1 25.57 10.93-9.19 21.51-15.17 31.51-17.79 15.45-4.07 29.72-.11 41.28 11.42 1.5 1.509 2.301 3.579 2.19 5.699z" fill="#fff18d"/><path d="m421.103 99.482-13.49 258.519c-.06 1.17-.39 2.31-.97 3.32-22.63 39.74-49.16 65.77-51.35 67.88-2.47 2.55-35.42 36-84.06 59.74-29.34 14.31-58.28 22.04-86.01 22.97-1.88.06-3.75.09-5.62.09-3.88 0-7.72-.14-11.55-.4 75.25-6.64 142.11-74.009 193.1-153.089-78.63-114.629-15.03-258.359-15.03-258.359 10.93-9.19 21.51-15.17 31.51-17.79 15.45-4.07 29.72-.11 41.28 11.42 1.5 1.509 2.301 3.579 2.19 5.699z" fill="#ffd366"/><path d="m460.753 424.43c-1.24 1.63-3.1 2.69-5.15 2.91-.27.03-.55.05-.82.05-1.76 0-3.48-.63-4.84-1.78-36.8-31.09-64.56-72.17-80.27-118.809-13.53-40.14-17.9-83.91-12.32-123.249 6.64-46.71 26.53-81.7 53.21-93.6 1.27-.57 2.68-.77 4.06-.58 30.19 4.12 59.35 33.51 78.01 78.61 26.53 64.1 34.1 169.719-31.88 256.448z" fill="#00cec8"/><g fill="#ffd366"><circle cx="163.559" cy="462.619" r="7.5"/><circle cx="233.959" cy="127.853" r="7.5"/><circle cx="299.11" cy="137.703" r="7.5"/></g><path d="m460.753 424.43c44.743-276.728-46.13-335.058-46.13-335.058 30.19 4.12 59.35 33.51 78.01 78.61 26.53 64.1 34.1 169.719-31.88 256.448z" fill="#00a3a8"/><g fill="#ffd366"><path d="m31.717 328.121c-.67 26.284 6.524 50.201 21.996 73.115 1.449 2.146 3.814 3.304 6.223 3.304 1.444 0 2.903-.417 4.19-1.285 3.433-2.318 4.337-6.98 2.019-10.412-13.665-20.238-20.021-41.284-19.433-64.339.105-4.141-3.166-7.583-7.306-7.689-4.157-.105-7.583 3.165-7.689 7.306z"/><path d="m43.096 299.037c.706.208 1.417.306 2.118.306 3.242 0 6.232-2.119 7.192-5.387 2.698-9.18 6.383-18.672 10.952-28.213 1.789-3.736.211-8.215-3.524-10.004-3.737-1.789-8.215-.211-10.004 3.524-4.916 10.265-8.891 20.514-11.815 30.463-1.168 3.975 1.107 8.143 5.081 9.311z"/></g></g></svg>