<svg id="Layer_1" enable-background="new 0 0 512 512" height="512" viewBox="0 0 512 512" width="512" xmlns="http://www.w3.org/2000/svg"><g><path d="m305.305 112.587h-98.135c-45.256-13.475-83.404-171.413 49.068-88.781 17.626-10.992 32.224-17.729 44.195-21.108 77.984-22.057 44.101 98.207 4.872 109.889z" fill="#09eaa3"/><path d="m305.305 112.587h-30.906c32.461-9.674 61.265-93.706 26.033-109.89 77.985-22.056 44.102 98.208 4.873 109.89z" fill="#05c9a3"/><path d="m255.83 512c-5.66 0-11.2-.09-16.61-.28-331.79-11.46-189.76-368.67 15.19-415.82.77-.18 1.55-.24 2.34-.2.44.03.88.1 1.32.2 208.27 47.93 350.8 416.1-2.24 416.1z" fill="#fff18d"/><path d="m255.83 512c-5.66 0-11.2-.09-16.61-.28 312.8-10.95 202.71-338.57 17.53-416.02.44.03.88.1 1.32.2 208.27 47.93 350.8 416.1-2.24 416.1z" fill="#ffd366"/><g><g><path d="m376.983 314.454c0 66.582-54.17 120.753-120.75 120.753-5.08 0-10.08-.32-15-.93-59.53-7.41-105.75-58.321-105.75-119.823s46.22-112.413 105.75-119.823c4.92-.61 9.92-.93 15-.93 66.58 0 120.75 54.171 120.75 120.753z" fill="#09eaa3"/><g fill="#05c9a3"><path d="m376.983 314.454c0 66.582-54.17 120.753-120.75 120.753-5.08 0-10.08-.32-15-.93 59.53-7.41 105.75-58.321 105.75-119.823s-46.22-112.413-105.75-119.823c4.92-.61 9.92-.93 15-.93 66.58 0 120.75 54.171 120.75 120.753z"/><g><path d="m263.733 232.772c0-4.142-3.358-7.5-7.5-7.5s-7.5 3.358-7.5 7.5 3.358 7.5 7.5 7.5 7.5-3.358 7.5-7.5z"/><path d="m248.734 396.136c0 4.142 3.358 7.5 7.5 7.5s7.5-3.358 7.5-7.5-3.358-7.5-7.5-7.5-7.5 3.358-7.5 7.5z"/><path d="m345.413 314.453c0-4.142-3.358-7.5-7.5-7.5s-7.5 3.358-7.5 7.5 3.358 7.5 7.5 7.5c4.142.001 7.5-3.357 7.5-7.5z"/><path d="m167.054 314.453c0 4.142 3.358 7.5 7.5 7.5s7.5-3.358 7.5-7.5-3.358-7.5-7.5-7.5-7.5 3.358-7.5 7.5z"/></g></g></g><path d="m256.233 306.954c-6.728 0-12.2-5.474-12.2-12.201s5.473-12.2 12.2-12.2c5.568 0 10.427 3.757 11.814 9.137 1.035 4.011 5.127 6.418 9.136 5.39 4.011-1.035 6.424-5.125 5.39-9.136-2.452-9.503-9.749-16.737-18.84-19.34v-4.129c0-4.143-3.357-7.5-7.5-7.5s-7.5 3.357-7.5 7.5v4.131c-11.362 3.264-19.7 13.751-19.7 26.148 0 14.999 12.202 27.201 27.2 27.201 6.728 0 12.201 5.474 12.201 12.201s-5.474 12.201-12.201 12.201c-5.335 0-10.007-3.41-11.626-8.485-1.259-3.946-5.478-6.121-9.425-4.866-3.946 1.26-6.125 5.479-4.866 9.425 2.826 8.857 9.815 15.439 18.417 17.885v4.119c0 4.143 3.357 7.5 7.5 7.5s7.5-3.357 7.5-7.5v-4.13c11.363-3.264 19.701-13.751 19.701-26.149 0-15-12.202-27.202-27.201-27.202z" fill="#fff"/></g></g></svg>